<mxfile host="65bd71144e">
    <diagram id="ldYlIT1pItKsK8P2ge8r" name="Page-1">
        <mxGraphModel dx="1618" dy="988" grid="1" gridSize="10" guides="1" tooltips="1" connect="1" arrows="1" fold="1" page="1" pageScale="1" pageWidth="827" pageHeight="1169" math="0" shadow="0">
            <root>
                <mxCell id="0"/>
                <mxCell id="1" parent="0"/>
                <mxCell id="2" value="" style="rounded=0;whiteSpace=wrap;html=1;fillColor=none;movable=0;resizable=0;rotatable=0;deletable=0;editable=0;connectable=0;" vertex="1" parent="1">
                    <mxGeometry x="110" y="100" width="630" height="810" as="geometry"/>
                </mxCell>
                <mxCell id="3" value="Système de Gestion de Projet" style="text;html=1;align=center;verticalAlign=middle;resizable=0;points=[];autosize=1;strokeColor=#005700;fillColor=#008a00;fontColor=#ffffff;fontSize=14;fontStyle=1" vertex="1" parent="1">
                    <mxGeometry x="304" y="60" width="220" height="30" as="geometry"/>
                </mxCell>
                <mxCell id="4" value="Utilisateur" style="shape=umlActor;verticalLabelPosition=bottom;verticalAlign=top;html=1;outlineConnect=0;fontSize=14;fillColor=none;" vertex="1" parent="1">
                    <mxGeometry x="50" y="430" width="30" height="60" as="geometry"/>
                </mxCell>
                <mxCell id="5" value="S'authentifier" style="ellipse;whiteSpace=wrap;html=1;fontSize=14;fillColor=#647687;fontColor=#ffffff;strokeColor=#314354;" vertex="1" parent="1">
                    <mxGeometry x="170" y="425" width="96" height="70" as="geometry"/>
                </mxCell>
                <mxCell id="6" value="Créer un accès" style="ellipse;whiteSpace=wrap;html=1;fontSize=14;fillColor=#647687;fontColor=#ffffff;strokeColor=#314354;" vertex="1" parent="1">
                    <mxGeometry x="170" y="180" width="96" height="70" as="geometry"/>
                </mxCell>
                <mxCell id="23" style="edgeStyle=none;html=1;entryX=0.5;entryY=1;entryDx=0;entryDy=0;fontSize=14;dashed=1;" edge="1" parent="1" source="7" target="5">
                    <mxGeometry relative="1" as="geometry"/>
                </mxCell>
                <mxCell id="24" value="extend" style="edgeLabel;html=1;align=center;verticalAlign=middle;resizable=0;points=[];fontSize=12;" vertex="1" connectable="0" parent="23">
                    <mxGeometry x="-0.36" y="-3" relative="1" as="geometry">
                        <mxPoint x="-5" y="-7" as="offset"/>
                    </mxGeometry>
                </mxCell>
                <mxCell id="7" value="Se déconnecter" style="ellipse;whiteSpace=wrap;html=1;fontSize=14;fillColor=#f0a30a;fontColor=#000000;strokeColor=#BD7000;" vertex="1" parent="1">
                    <mxGeometry x="170" y="550" width="96" height="70" as="geometry"/>
                </mxCell>
                <mxCell id="26" style="edgeStyle=none;html=1;entryX=0.5;entryY=1;entryDx=0;entryDy=0;dashed=1;fontSize=12;" edge="1" parent="1" source="8" target="9">
                    <mxGeometry relative="1" as="geometry"/>
                </mxCell>
                <mxCell id="27" value="include" style="edgeLabel;html=1;align=center;verticalAlign=middle;resizable=0;points=[];fontSize=12;" vertex="1" connectable="0" parent="26">
                    <mxGeometry x="-0.3826" y="1" relative="1" as="geometry">
                        <mxPoint x="-14" y="-10" as="offset"/>
                    </mxGeometry>
                </mxCell>
                <mxCell id="34" style="edgeStyle=none;html=1;entryX=0.5;entryY=0;entryDx=0;entryDy=0;dashed=1;fontSize=12;" edge="1" parent="1" source="8" target="13">
                    <mxGeometry relative="1" as="geometry"/>
                </mxCell>
                <mxCell id="35" value="include" style="edgeLabel;html=1;align=center;verticalAlign=middle;resizable=0;points=[];fontSize=12;" vertex="1" connectable="0" parent="34">
                    <mxGeometry x="0.4327" y="3" relative="1" as="geometry">
                        <mxPoint x="-4" y="-14" as="offset"/>
                    </mxGeometry>
                </mxCell>
                <mxCell id="8" value="Gérer des projets" style="ellipse;whiteSpace=wrap;html=1;fontSize=14;fillColor=#647687;fontColor=#ffffff;strokeColor=#314354;" vertex="1" parent="1">
                    <mxGeometry x="440" y="425" width="96" height="70" as="geometry"/>
                </mxCell>
                <mxCell id="9" value="Créer nouveau projet" style="ellipse;whiteSpace=wrap;html=1;fontSize=14;fillColor=#a20025;fontColor=#ffffff;strokeColor=#6F0000;" vertex="1" parent="1">
                    <mxGeometry x="280" y="280" width="96" height="70" as="geometry"/>
                </mxCell>
                <mxCell id="28" style="edgeStyle=none;html=1;dashed=1;fontSize=12;" edge="1" parent="1" source="10" target="8">
                    <mxGeometry relative="1" as="geometry"/>
                </mxCell>
                <mxCell id="29" value="extend" style="edgeLabel;html=1;align=center;verticalAlign=middle;resizable=0;points=[];fontSize=12;" vertex="1" connectable="0" parent="28">
                    <mxGeometry x="0.2641" y="1" relative="1" as="geometry">
                        <mxPoint x="-5" y="-8" as="offset"/>
                    </mxGeometry>
                </mxCell>
                <mxCell id="10" value="Consulter projets" style="ellipse;whiteSpace=wrap;html=1;fontSize=14;fillColor=#f0a30a;fontColor=#000000;strokeColor=#BD7000;" vertex="1" parent="1">
                    <mxGeometry x="384" y="280" width="96" height="70" as="geometry"/>
                </mxCell>
                <mxCell id="30" style="edgeStyle=none;html=1;dashed=1;fontSize=12;" edge="1" parent="1" source="11" target="8">
                    <mxGeometry relative="1" as="geometry"/>
                </mxCell>
                <mxCell id="31" value="extend" style="edgeLabel;html=1;align=center;verticalAlign=middle;resizable=0;points=[];fontSize=12;" vertex="1" connectable="0" parent="30">
                    <mxGeometry x="0.3397" y="-1" relative="1" as="geometry">
                        <mxPoint x="4" y="-20" as="offset"/>
                    </mxGeometry>
                </mxCell>
                <mxCell id="11" value="Modifier projet" style="ellipse;whiteSpace=wrap;html=1;fontSize=14;fillColor=#f0a30a;fontColor=#000000;strokeColor=#BD7000;" vertex="1" parent="1">
                    <mxGeometry x="487" y="280" width="96" height="70" as="geometry"/>
                </mxCell>
                <mxCell id="32" style="edgeStyle=none;html=1;entryX=1;entryY=0;entryDx=0;entryDy=0;dashed=1;fontSize=12;" edge="1" parent="1" source="12" target="8">
                    <mxGeometry relative="1" as="geometry"/>
                </mxCell>
                <mxCell id="33" value="extend" style="edgeLabel;html=1;align=center;verticalAlign=middle;resizable=0;points=[];fontSize=12;" vertex="1" connectable="0" parent="32">
                    <mxGeometry x="0.4064" y="1" relative="1" as="geometry">
                        <mxPoint x="17" y="-21" as="offset"/>
                    </mxGeometry>
                </mxCell>
                <mxCell id="12" value="Supprimer projet" style="ellipse;whiteSpace=wrap;html=1;fontSize=14;fillColor=#f0a30a;fontColor=#000000;strokeColor=#BD7000;" vertex="1" parent="1">
                    <mxGeometry x="591" y="280" width="96" height="70" as="geometry"/>
                </mxCell>
                <mxCell id="38" style="edgeStyle=none;html=1;entryX=0.5;entryY=0;entryDx=0;entryDy=0;dashed=1;fontSize=12;" edge="1" parent="1" source="13" target="15">
                    <mxGeometry relative="1" as="geometry"/>
                </mxCell>
                <mxCell id="39" value="include" style="edgeLabel;html=1;align=center;verticalAlign=middle;resizable=0;points=[];fontSize=12;" vertex="1" connectable="0" parent="38">
                    <mxGeometry x="0.4213" y="1" relative="1" as="geometry">
                        <mxPoint x="35" y="-35" as="offset"/>
                    </mxGeometry>
                </mxCell>
                <mxCell id="13" value="Gérer des tâches" style="ellipse;whiteSpace=wrap;html=1;fontSize=14;fillColor=#a20025;fontColor=#ffffff;strokeColor=#6F0000;" vertex="1" parent="1">
                    <mxGeometry x="440" y="550" width="96" height="70" as="geometry"/>
                </mxCell>
                <mxCell id="15" value="Créer nouvelle tâche" style="ellipse;whiteSpace=wrap;html=1;fontSize=14;fillColor=#a20025;fontColor=#ffffff;strokeColor=#6F0000;" vertex="1" parent="1">
                    <mxGeometry x="280" y="700" width="96" height="70" as="geometry"/>
                </mxCell>
                <mxCell id="40" style="edgeStyle=none;html=1;entryX=0.313;entryY=1;entryDx=0;entryDy=0;entryPerimeter=0;dashed=1;fontSize=12;" edge="1" parent="1" source="16" target="13">
                    <mxGeometry relative="1" as="geometry"/>
                </mxCell>
                <mxCell id="41" value="extend" style="edgeLabel;html=1;align=center;verticalAlign=middle;resizable=0;points=[];fontSize=12;" vertex="1" connectable="0" parent="40">
                    <mxGeometry x="-0.3453" relative="1" as="geometry">
                        <mxPoint y="-14" as="offset"/>
                    </mxGeometry>
                </mxCell>
                <mxCell id="16" value="Consulter tâches" style="ellipse;whiteSpace=wrap;html=1;fontSize=14;fillColor=#f0a30a;fontColor=#000000;strokeColor=#BD7000;" vertex="1" parent="1">
                    <mxGeometry x="384" y="700" width="96" height="70" as="geometry"/>
                </mxCell>
                <mxCell id="42" style="edgeStyle=none;html=1;entryX=0.679;entryY=1.017;entryDx=0;entryDy=0;entryPerimeter=0;dashed=1;fontSize=12;" edge="1" parent="1" source="17" target="13">
                    <mxGeometry relative="1" as="geometry"/>
                </mxCell>
                <mxCell id="43" value="extend" style="edgeLabel;html=1;align=center;verticalAlign=middle;resizable=0;points=[];fontSize=12;" vertex="1" connectable="0" parent="42">
                    <mxGeometry x="-0.3139" relative="1" as="geometry">
                        <mxPoint y="-14" as="offset"/>
                    </mxGeometry>
                </mxCell>
                <mxCell id="17" value="Modifier tâche" style="ellipse;whiteSpace=wrap;html=1;fontSize=14;fillColor=#f0a30a;fontColor=#000000;strokeColor=#BD7000;" vertex="1" parent="1">
                    <mxGeometry x="487" y="700" width="96" height="70" as="geometry"/>
                </mxCell>
                <mxCell id="44" style="edgeStyle=none;html=1;entryX=1;entryY=1;entryDx=0;entryDy=0;dashed=1;fontSize=12;" edge="1" parent="1" source="18" target="13">
                    <mxGeometry relative="1" as="geometry"/>
                </mxCell>
                <mxCell id="45" value="extend" style="edgeLabel;html=1;align=center;verticalAlign=middle;resizable=0;points=[];fontSize=12;" vertex="1" connectable="0" parent="44">
                    <mxGeometry x="-0.3345" y="-4" relative="1" as="geometry">
                        <mxPoint x="-15" y="-11" as="offset"/>
                    </mxGeometry>
                </mxCell>
                <mxCell id="18" value="Supprimer tâche" style="ellipse;whiteSpace=wrap;html=1;fontSize=14;fillColor=#f0a30a;fontColor=#000000;strokeColor=#BD7000;" vertex="1" parent="1">
                    <mxGeometry x="591" y="700" width="96" height="70" as="geometry"/>
                </mxCell>
                <mxCell id="36" style="edgeStyle=none;html=1;entryX=1;entryY=0.5;entryDx=0;entryDy=0;dashed=1;fontSize=12;" edge="1" parent="1" source="19" target="13">
                    <mxGeometry relative="1" as="geometry"/>
                </mxCell>
                <mxCell id="37" value="extend" style="edgeLabel;html=1;align=center;verticalAlign=middle;resizable=0;points=[];fontSize=12;" vertex="1" connectable="0" parent="36">
                    <mxGeometry x="-0.5568" y="1" relative="1" as="geometry">
                        <mxPoint x="-12" y="-3" as="offset"/>
                    </mxGeometry>
                </mxCell>
                <mxCell id="19" value="Attribuer statut d'avancement" style="ellipse;whiteSpace=wrap;html=1;fontSize=14;fillColor=#f0a30a;fontColor=#000000;strokeColor=#BD7000;" vertex="1" parent="1">
                    <mxGeometry x="591" y="550" width="96" height="70" as="geometry"/>
                </mxCell>
                <mxCell id="21" value="" style="endArrow=none;html=1;fontSize=14;exitX=0.5;exitY=0.5;exitDx=0;exitDy=0;exitPerimeter=0;entryX=0;entryY=1;entryDx=0;entryDy=0;" edge="1" parent="1" source="4" target="6">
                    <mxGeometry width="50" height="50" relative="1" as="geometry">
                        <mxPoint x="410" y="610" as="sourcePoint"/>
                        <mxPoint x="460" y="560" as="targetPoint"/>
                    </mxGeometry>
                </mxCell>
                <mxCell id="22" value="" style="endArrow=none;html=1;fontSize=14;exitX=0.5;exitY=0.5;exitDx=0;exitDy=0;exitPerimeter=0;entryX=0;entryY=0.5;entryDx=0;entryDy=0;" edge="1" parent="1" source="4" target="5">
                    <mxGeometry width="50" height="50" relative="1" as="geometry">
                        <mxPoint x="75" y="470" as="sourcePoint"/>
                        <mxPoint x="194.05887450304567" y="249.74873734152925" as="targetPoint"/>
                    </mxGeometry>
                </mxCell>
                <mxCell id="25" value="" style="endArrow=none;html=1;fontSize=14;exitX=1;exitY=0.5;exitDx=0;exitDy=0;entryX=0;entryY=0.5;entryDx=0;entryDy=0;" edge="1" parent="1" source="5" target="8">
                    <mxGeometry width="50" height="50" relative="1" as="geometry">
                        <mxPoint x="275.5" y="459.5" as="sourcePoint"/>
                        <mxPoint x="380.5" y="459.5" as="targetPoint"/>
                    </mxGeometry>
                </mxCell>
            </root>
        </mxGraphModel>
    </diagram>
</mxfile>